Coordinates
version=1
nRows=60
nColumns=12
inDegrees=yes

Units are S.I. units (second, meters, Newtons, ...)
Angles are in degrees

endheader
time	SC_y	SC_z	SC_x	AC_y	AC_z	AC_x	GH_y	GH_z	GH_yy	EL_x	PS_y
       0.0              -41.76          38.17          25.49          67.92          2.591          19.72         -89.52          10.02          167.1          124.4          107.8
   0.04332              -41.75          38.17          25.49          67.92           2.59          19.72         -89.51          10.03          167.1          124.4          107.7
   0.08665              -41.75          38.17           25.5          67.92           2.59          19.72          -89.5          10.04          167.1          124.4          107.7
      0.13              -41.75          38.16          25.51          67.92           2.59          19.71         -89.49          10.05          167.0          124.4          107.7
    0.1733              -41.74          38.16          25.51          67.92           2.59          19.71         -89.47          10.06          167.0          124.4          107.7
    0.2166              -41.74          38.16          25.52          67.92          2.589          19.71         -89.46          10.07          166.9          124.4          107.7
    0.2599              -41.73          38.16          25.53          67.92          2.589          19.71         -89.44          10.09          166.9          124.3          107.7
    0.3033              -41.73          38.16          25.54          67.92          2.589          19.71         -89.43           10.1          166.9          124.3          107.7
    0.3466              -41.72          38.15          25.55          67.91          2.588          19.71         -89.41          10.11          166.8          124.3          107.6
    0.3899              -41.72          38.15          25.56          67.91          2.588           19.7         -89.39          10.13          166.8          124.3          107.6
    0.4332              -41.71          38.15          25.57          67.91          2.588           19.7         -89.37          10.15          166.7          124.3          107.6
    0.4766              -41.71          38.14          25.58          67.91          2.587           19.7         -89.35          10.17          166.6          124.3          107.6
    0.5199               -41.7          38.14          25.59          67.91          2.587           19.7         -89.32          10.19          166.6          124.3          107.5
    0.5632              -41.69          38.14          25.61          67.91          2.586           19.7          -89.3          10.21          166.5          124.3          107.5
    0.6065              -41.69          38.13          25.62          67.91          2.586          19.69         -89.27          10.23          166.4          124.3          107.5
    0.6499              -41.68          38.13          25.64           67.9          2.585          19.69         -89.24          10.26          166.3          124.2          107.5
    0.6932              -41.67          38.12          25.65           67.9          2.584          19.69         -89.21          10.28          166.3          124.2          107.4
    0.7365              -41.66          38.12          25.67           67.9          2.584          19.68         -89.17          10.31          166.2          124.2          107.4
    0.7798              -41.65          38.11          25.69           67.9          2.583          19.68         -89.13          10.35          166.1          124.2          107.3
    0.8232              -41.64          38.11          25.71           67.9          2.582          19.68         -89.09          10.38          165.9          124.2          107.3
    0.8665              -41.63           38.1          25.74          67.89          2.581          19.67         -89.04          10.42          165.8          124.1          107.2
    0.9098              -41.61          38.09          25.76          67.89           2.58          19.67         -88.99          10.47          165.7          124.1          107.2
    0.9531               -41.6          38.09          25.79          67.89          2.579          19.66         -88.93          10.51          165.5          124.1          107.1
    0.9965              -41.58          38.08          25.83          67.88          2.577          19.65         -88.87          10.57          165.3          124.1          107.1
      1.04              -41.56          38.07          25.86          67.88          2.576          19.65          -88.8          10.63          165.2          124.0          107.0
     1.083              -41.54          38.06           25.9          67.87          2.574          19.64         -88.72          10.69          164.9          124.0          106.9
     1.126              -41.52          38.05          25.95          67.87          2.573          19.63         -88.63          10.77          164.7          123.9          106.8
      1.17              -41.49          38.03           26.0          67.86          2.571          19.62         -88.53          10.85          164.4          123.9          106.7
     1.213              -41.46          38.02          26.06          67.86          2.568          19.61         -88.42          10.94          164.1          123.8          106.6
     1.256              -41.42           38.0          26.13          67.85          2.566           19.6         -88.29          11.05          163.8          123.8          106.4
       1.3              -41.38          37.98           26.2          67.84          2.563          19.59         -88.15          11.17          163.4          123.7          106.3
     1.343              -41.34          37.96          26.29          67.83           2.56          19.57         -87.98          11.31          162.9          123.6          106.1
     1.386              -41.29          37.93          26.39          67.82          2.556          19.55         -87.79          11.47          162.4          123.5          105.9
      1.43              -41.23           37.9           26.5           67.8          2.551          19.53         -87.57          11.66          161.8          123.4          105.7
     1.473              -41.16          37.86          26.64          67.79          2.546          19.51          -87.3          11.88          161.1          123.3          105.4
     1.516              -41.07          37.82           26.8          67.77           2.54          19.48          -87.0          12.14          160.3          123.1          105.1
      1.56              -40.98          37.77          26.99          67.75          2.532          19.44         -86.63          12.44          159.3          122.9          104.7
     1.603              -40.86          37.71          27.21          67.72          2.523           19.4         -86.19          12.81          158.1          122.7          104.2
     1.646              -40.71          37.63          27.49          67.69          2.513          19.35         -85.66          13.26          156.7          122.4          103.6
      1.69              -40.54          37.55          27.83          67.65          2.499          19.29         -85.01           13.8          154.9          122.1          103.0
     1.733              -40.32          37.43          28.24           67.6          2.483          19.21         -84.21          14.47          152.7          121.7          102.1
     1.776              -40.06           37.3          28.76          67.54          2.463          19.11         -83.21          15.31          150.0          121.2          101.0
      1.82              -39.72          37.12          29.41          67.47          2.438          18.99         -81.95          16.36          146.6          120.6          99.71
     1.863              -39.29           36.9          30.24          67.37          2.405          18.84         -80.35           17.7          142.3          119.8          98.01
     1.906              -38.73          36.62           31.3          67.25          2.364          18.65         -78.31          19.42          136.7          118.7          95.83
      1.95              -38.03          36.26          32.66          67.09          2.311           18.4         -75.68          21.62          129.6          117.4          93.04
     1.993              -37.12          35.79           34.4          66.89          2.243          18.07         -72.32          24.43          120.5          115.7          89.47
     2.036              -35.99          35.21          36.58          66.63          2.158          17.67          -68.1          27.96          109.1          113.6          84.98
      2.08               -34.6           34.5          39.25          66.33          2.054          17.18         -62.96          32.27          95.19          111.0          79.52
     2.123               -33.0          33.68          42.33          65.97          1.933          16.61          -57.0          37.26          79.05          108.0          73.18
     2.166              -31.26          32.79          45.68          65.58          1.802          15.99         -50.55          42.67          61.57          104.8          66.32
      2.21              -29.52           31.9          49.02          65.19          1.672          15.38         -44.09          48.08           44.1          101.5          59.46
     2.253              -27.92          31.07          52.11          64.83          1.551          14.81         -38.13          53.07          27.96           98.5          53.12
     2.296              -26.53          30.36          54.77          64.53          1.447          14.32         -32.99          57.38          14.03          95.91          47.65
      2.34               -25.4          29.78          56.95          64.27          1.362          13.91         -28.77          60.91          2.607          93.78          43.17
     2.383              -24.49          29.32          58.69          64.07          1.294          13.59         -25.42          63.72          -6.48          92.09           39.6
     2.426              -23.79          28.95          60.05          63.91          1.241          13.34         -22.79          65.92         -13.59          90.77          36.81
     2.469              -23.24          28.67          61.11          63.79            1.2          13.15         -20.74          67.64         -19.14          89.74          34.63
     2.513               -22.8          28.45          61.94          63.69          1.167          12.99         -19.14          68.98         -23.47          88.93          32.93
     2.556              -22.47          28.28          62.59          63.62          1.142          12.87         -17.89          70.03         -26.88           88.3          31.59
